Coordinates
version=1
nRows=14
nColumns=24
inDegrees=yes

Units are S.I. units (second, meters, Newtons, ...)
Angles are in degrees.

endheader
time	pelvis_tilt	pelvis_list	pelvis_rotation	pelvis_tx	pelvis_ty	pelvis_tz	hip_flexion_r	hip_adduction_r	hip_rotation_r	knee_angle_r	ankle_angle_r	subtalar_angle_r	mtp_angle_r	hip_flexion_l	hip_adduction_l	hip_rotation_l	knee_angle_l	ankle_angle_l	subtalar_angle_l	mtp_angle_l	lumbar_extension	lumbar_bending	lumbar_rotation
      1.07966667	      3.56217712	      5.11278431	     -3.54811483	      0.15520941	      0.90947225	      0.31101308	     11.10598100	     -8.45830597	     -5.43912196	    -77.11798064	      5.64468120	     12.49497503	      7.83556642	      7.11694766	      8.45299160	     -5.31328912	    -22.93882293	     13.78144911	     -5.57199694	      5.73926292	    -12.15588031	     -8.33966222	      3.37647934
      1.08383333	      3.53613696	      4.86537023	     -3.44308921	      0.16043901	      0.91085659	      0.31084746	     11.85027012	     -8.10032786	     -5.45771340	    -77.05152264	      5.91068398	     12.17392985	      7.76487716	      6.42344001	      8.28956716	     -4.91992409	    -22.27174051	     13.72131430	     -5.81371454	      5.70751215	    -12.16680175	     -8.04052729	      3.17903549
      1.08800000	      3.49684477	      4.60324504	     -3.34041634	      0.16564599	      0.91216636	      0.31072249	     12.59440550	     -7.71003709	     -5.46782488	    -76.92813313	      6.30918818	     11.86416564	      7.73057869	      5.77667757	      8.07855834	     -4.64876124	    -21.67036800	     13.67199735	     -5.89148123	      5.68716641	    -12.18021075	     -7.71305738	      3.07317425
      1.09216667	      3.47055181	      4.32940703	     -3.22768088	      0.17086662	      0.91350003	      0.31056581	     13.29637004	     -7.31536092	     -5.50618648	    -76.71201251	      6.61943864	     11.50216066	      7.68832903	      5.09908479	      7.86271386	     -4.32190067	    -21.03289153	     13.60999768	     -6.03299625	      5.66153561	    -12.20300152	     -7.37402916	      2.93389839
      1.09633333	      3.46082361	      4.06747298	     -3.10140284	      0.17612027	      0.91484255	      0.31037589	     13.95583392	     -6.94369514	     -5.56549515	    -76.41848057	      6.85037764	     11.14224993	      7.61142874	      4.37200611	      7.67184597	     -3.92368681	    -20.32426888	     13.53008483	     -6.28449022	      5.61589937	    -12.22341441	     -7.05123025	      2.73423092
      1.10050000	      3.43906545	      3.81928147	     -2.97610683	      0.18134450	      0.91610666	      0.31017930	     14.61914797	     -6.59122926	     -5.62775581	    -76.07918680	      7.18688234	     10.80599314	      7.48025009	      3.66930590	      7.48748068	     -3.55191294	    -19.62403073	     13.37985047	     -6.53954003	      5.53526365	    -12.24777816	     -6.73784297	      2.53746301
      1.10466667	      3.41085756	      3.51805332	     -2.84152332	      0.18653939	      0.91733473	      0.31001947	     15.26055758	     -6.16306070	     -5.69979491	    -75.64898553	      7.48563154	     10.40880693	      7.43441711	      3.01188935	      7.21377113	     -3.29445143	    -19.00989249	     13.32696756	     -6.58863895	      5.50685632	    -12.27019523	     -6.35668208	      2.45315376
      1.10883333	      3.40414302	      3.22750386	     -2.69782403	      0.19175475	      0.91857146	      0.30983769	     15.85178432	     -5.75857058	     -5.79414337	    -75.14054275	      7.73675621	      9.97867154	      7.38006650	      2.31168039	      6.95712417	     -2.99678436	    -18.34783339	     13.23872753	     -6.69928163	      5.47437668	    -12.31417904	     -5.98747150	      2.31384446
      1.11300000	      3.42309587	      2.98487695	     -2.55352350	      0.19698151	      0.91978453	      0.30960810	     16.40728515	     -5.43495736	     -5.90537701	    -74.59485227	      7.95861975	      9.58703900	      7.20188574	      1.53771935	      6.77597251	     -2.57011534	    -17.57228912	     13.06558312	     -7.05636579	      5.37574881	    -12.36664507	     -5.68758079	      2.04436630
      1.11716667	      3.40585670	      2.67934284	     -2.39989482	      0.20215180	      0.92090218	      0.30944254	     16.97441580	     -5.01387669	     -6.01672939	    -73.96072733	      8.20366729	      9.14242367	      7.14121818	      0.87710027	      6.47907764	     -2.34049025	    -16.95533433	     12.98848344	     -7.08785614	      5.34389468	    -12.40660936	     -5.29449028	      1.95857092
      1.12133333	      3.42458262	      2.39650534	     -2.25003767	      0.20733156	      0.92202529	      0.30926902	     17.48473332	     -4.63052581	     -6.13462931	    -73.26559540	      8.36604257	      8.65681731	      7.05610589	      0.14740434	      6.21497453	     -2.05482898	    -16.26561221	     12.89719356	     -7.20169982	      5.30359407	    -12.48009272	     -4.93874340	      1.79752323
      1.12550000	      3.45950186	      2.12258667	     -2.08937829	      0.21250997	      0.92311954	      0.30906402	     17.95482711	     -4.27363191	     -6.27928474	    -72.50740912	      8.50687771	      8.16573865	      6.93813713	     -0.60729032	      5.96103262	     -1.75003797	    -15.55032853	     12.78861819	     -7.38149108	      5.25127762	    -12.55399638	     -4.59273237	      1.59619492
      1.12966667	      3.48273038	      1.88319883	     -1.92440881	      0.21766098	      0.92411837	      0.30885179	     18.42919791	     -3.96306818	     -6.42476544	    -71.71668424	      8.72150606	      7.71674962	      6.67946776	     -1.35407721	      5.74519180	     -1.40162423	    -14.80762249	     12.57845727	     -7.66725146	      5.14319849	    -12.61942469	     -4.29242930	      1.33984793
      1.13383333	      3.50151133	      1.59713354	     -1.76365937	      0.22279496	      0.92506411	      0.30868770	     18.88191545	     -3.58580519	     -6.56778497	    -70.83853877	      8.81310284	      7.19180140	      6.54636006	     -2.05523929	      5.45126184	     -1.19173074	    -14.15740068	     12.51895589	     -7.70557558	      5.09443225	    -12.68374687	     -3.91713855	      1.21893440
